<svg width="1000" height="900" viewBox="0 0 1000 900" xmlns="http://www.w3.org/2000/svg">
  <style>
    .title {
      font: bold 28px 'Segoe UI', sans-serif;
      fill: #2d3748;
      text-anchor: middle;
    }
    .subtitle {
      font: italic 16px 'Segoe UI', sans-serif;
      fill: #718096;
      text-anchor: middle;
    }
    .box {
      fill: #ffffff;
      stroke: #cbd5e0;
      stroke-width: 2;
      rx: 12;
      filter: drop-shadow(0 2px 4px rgba(0,0,0,0.05));
    }
    .label {
      font: 16px 'Segoe UI', sans-serif;
      fill: #2d3748;
      text-anchor: middle;
      dominant-baseline: middle;
    }
    .arrow {
      stroke: #4f46e5;
      stroke-width: 2;
      marker-end: url(#arrowhead);
      fill: none;
    }
    .note {
      font: 14px 'Segoe UI', sans-serif;
      fill: #718096;
      text-anchor: middle;
    }
    .component {
      font: bold 14px 'Segoe UI', sans-serif;
      fill: #2d3748;
      text-anchor: middle;
      dominant-baseline: middle;
    }
    .subcomponent {
      font: 14px 'Segoe UI', sans-serif;
      fill: #718096;
      text-anchor: middle;
      dominant-baseline: middle;
    }
  </style>

  <defs>
    <marker id="arrowhead" markerWidth="10" markerHeight="7"
            refX="10" refY="3.5" orient="auto">
      <polygon points="0 0, 10 3.5, 0 7" fill="#4f46e5"/>
    </marker>
  </defs>

  <!-- Title -->
  <text x="500" y="40" class="title">S2M - Solidity to Move Transpiler</text>
  <text x="500" y="65" class="subtitle">A modular transpilation system from Solidity to Sui/Aptos Move</text>

  <!-- Interfaces -->
  <rect x="100" y="100" width="300" height="90" class="box"/>
  <text x="250" y="145" class="label">Web Interface</text>
  <text x="250" y="165" class="subcomponent">(React + Tailwind)</text>

  <rect x="600" y="100" width="300" height="90" class="box"/>
  <text x="750" y="145" class="label">CLI Interface</text>
  <text x="750" y="165" class="subcomponent">(Commander.js + NPM)</text>

  <!-- Core Module -->
  <rect x="200" y="220" width="600" height="130" class="box"/>
  <text x="500" y="260" class="label">Core Module</text>
  <text x="500" y="285" class="subcomponent">(AST Parsing, Type Mapping,</text>
  <text x="500" y="305" class="subcomponent">Move Generation, Plugins)</text>

  <!-- Arrows to Core -->
  <line x1="250" y1="190" x2="500" y2="220" class="arrow"/>
  <line x1="750" y1="190" x2="500" y2="220" class="arrow"/>

  <!-- Submodules inside Core -->
  <rect x="150" y="370" width="200" height="70" class="box"/>
  <text x="250" y="400" class="component">Solidity Parser</text>
  <text x="250" y="420" class="subcomponent">(solc AST, ABI parsing)</text>

  <rect x="400" y="370" width="200" height="70" class="box"/>
  <text x="500" y="400" class="component">Move Generator</text>
  <text x="500" y="420" class="subcomponent">(AST builder, type mapper)</text>

  <rect x="650" y="370" width="200" height="70" class="box"/>
  <text x="750" y="400" class="component">AI Integration</text>
  <text x="750" y="420" class="subcomponent">(Qwen)</text>

  <!-- Arrows from Interfaces to Core Components -->
  <line x1="250" y1="190" x2="250" y2="370" class="arrow"/>
  <line x1="750" y1="190" x2="750" y2="370" class="arrow"/>

  <!-- Plugin System -->
  <rect x="300" y="460" width="400" height="60" class="box"/>
  <text x="500" y="490" class="component">Plugin System</text>
  <text x="500" y="510" class="subcomponent">(advancedSyntaxPlugin.ts, pluginManager.ts)</text>

  <!-- Arrow from Core to Plugins -->
  <line x1="500" y1="350" x2="500" y2="460" class="arrow"/>

  <!-- Move Output -->
  <rect x="150" y="540" width="300" height="90" class="box"/>
  <text x="300" y="580" class="label">/output/ (.move files)</text>

  <rect x="550" y="540" width="300" height="90" class="box"/>
  <text x="700" y="580" class="label">/move-project/ (Move App)</text>
  <text x="700" y="600" class="subcomponent">(Move.toml scaffolding coming soon)</text>

  <!-- Arrows from Core to Outputs -->
  <line x1="350" y1="490" x2="300" y2="540" class="arrow"/>
  <line x1="650" y1="490" x2="700" y2="540" class="arrow"/>

  <!-- Linter -->
  <rect x="300" y="650" width="400" height="60" class="box"/>
  <text x="500" y="680" class="component">Move Linter</text>
  <text x="500" y="700" class="subcomponent">(sui move lint, error explanation via AI)</text>

  <!-- Arrow from Move Output to Linter -->
  <line x1="300" y1="630" x2="300" y2="650" class="arrow"/>
  <line x1="700" y1="630" x2="700" y2="650" class="arrow"/>

  <!-- Final Output -->
  <text x="300" y="730" class="note">Generated Move code</text>
  <text x="700" y="730" class="note">Validated Move output</text>
</svg>